<svg width="136" height="75" viewBox="0 0 136 75" fill="none" xmlns="http://www.w3.org/2000/svg">
<g filter="url(#filter0_di_1_12)">
<path opacity="0.8" d="M59 64L58.6 62C57.3467 62.8267 56.0533 63.44 54.72 63.84C53.4133 64.2133 52.3067 64.4 51.4 64.4H49.6C47.7867 64.4 46.3333 63.8533 45.24 62.76C44.1467 61.6667 43.6 60.2133 43.6 58.4V49.2C43.6 47.2 44.16 45.64 45.28 44.52C46.4267 43.3733 48 42.8 50 42.8H58.2V36H65.2V64H59ZM53.4 58.6C54.8133 58.6 56.4133 58.3333 58.2 57.8V48.2H52.2C51.1333 48.2 50.6 48.7333 50.6 49.8V57.2C50.6 57.6 50.7333 57.9333 51 58.2C51.2667 58.4667 51.6 58.6 52 58.6H53.4ZM77.5953 58.8C79.0086 58.8 80.6086 58.5333 82.3953 58V55.6H76.5953C76.1953 55.6 75.862 55.7333 75.5953 56C75.3286 56.2667 75.1953 56.6 75.1953 57V57.4C75.1953 57.8 75.3286 58.1333 75.5953 58.4C75.862 58.6667 76.1953 58.8 76.5953 58.8H77.5953ZM70.1953 43.2C75.0753 42.6667 79.4753 42.4 83.3953 42.4C85.2086 42.4 86.662 42.9467 87.7553 44.04C88.8486 45.1333 89.3953 46.5867 89.3953 48.4V64H83.1953L82.7953 62C81.542 62.8267 80.2486 63.44 78.9153 63.84C77.6086 64.2133 76.502 64.4 75.5953 64.4H74.1953C72.382 64.4 70.9286 63.8533 69.8353 62.76C68.742 61.6667 68.1953 60.2133 68.1953 58.4V56.6C68.1953 54.7867 68.742 53.3333 69.8353 52.24C70.9286 51.1467 72.382 50.6 74.1953 50.6H82.3953V49C82.3953 48.6 82.262 48.2667 81.9953 48C81.7286 47.7333 81.3953 47.6 80.9953 47.6C79.262 47.6 77.342 47.68 75.2353 47.84C73.1553 48 71.4753 48.12 70.1953 48.2V43.2ZM107.784 64C105.198 64.2667 102.664 64.4 100.184 64.4C98.371 64.4 96.9177 63.8533 95.8244 62.76C94.731 61.6667 94.1844 60.2133 94.1844 58.4V48.2H91.7844V42.8H94.1844L94.9844 38H101.184V42.8H106.184V48.2H101.184V57.4C101.184 57.8 101.318 58.1333 101.584 58.4C101.851 58.6667 102.184 58.8 102.584 58.8H107.784V64ZM118.411 47.4C117.344 47.4 116.811 47.9333 116.811 49V51.2H123.611V49C123.611 47.9333 123.078 47.4 122.011 47.4H118.411ZM129.811 63.6C124.664 64.1333 119.998 64.4 115.811 64.4C113.998 64.4 112.544 63.8533 111.451 62.76C110.358 61.6667 109.811 60.2133 109.811 58.4V48.8C109.811 46.8 110.371 45.24 111.491 44.12C112.638 42.9733 114.211 42.4 116.211 42.4H124.211C126.211 42.4 127.771 42.9733 128.891 44.12C130.038 45.24 130.611 46.8 130.611 48.8V56.2H116.811V57.8C116.811 58.2 116.944 58.5333 117.211 58.8C117.478 59.0667 117.811 59.2 118.211 59.2C120.851 59.2 124.718 59 129.811 58.6V63.6Z" fill="white"/>
<path d="M35.5 46H26L14 25V46H5V11H14.5L26.5 32V11H35.5V46ZM50.5234 46H41.5234V11H69.2734V18H50.5234V26.25H65.2734V33.25H50.5234V46ZM89.7734 46H80.7734V18H70.2734V11H100.273V18H89.7734V46Z" fill="#FF343F"/>
</g>
<defs>
<filter id="filter0_di_1_12" x="-3" y="0" width="141" height="85" filterUnits="userSpaceOnUse" color-interpolation-filters="sRGB">
<feFlood flood-opacity="0" result="BackgroundImageFix"/>
<feColorMatrix in="SourceAlpha" type="matrix" values="0 0 0 0 0 0 0 0 0 0 0 0 0 0 0 0 0 0 127 0" result="hardAlpha"/>
<feOffset dy="5"/>
<feGaussianBlur stdDeviation="2.5"/>
<feComposite in2="hardAlpha" operator="out"/>
<feColorMatrix type="matrix" values="0 0 0 0 0 0 0 0 0 0 0 0 0 0 0 0 0 0 0.5 0"/>
<feBlend mode="normal" in2="BackgroundImageFix" result="effect1_dropShadow_1_12"/>
<feBlend mode="normal" in="SourceGraphic" in2="effect1_dropShadow_1_12" result="shape"/>
<feColorMatrix in="SourceAlpha" type="matrix" values="0 0 0 0 0 0 0 0 0 0 0 0 0 0 0 0 0 0 127 0" result="hardAlpha"/>
<feOffset dy="3"/>
<feComposite in2="hardAlpha" operator="arithmetic" k2="-1" k3="1"/>
<feColorMatrix type="matrix" values="0 0 0 0 1 0 0 0 0 1 0 0 0 0 1 0 0 0 0.2 0"/>
<feBlend mode="normal" in2="shape" result="effect2_innerShadow_1_12"/>
</filter>
</defs>
</svg>
